<?xml version="1.0" encoding="UTF-8"?>
<svg version="1.1" xmlns="http://www.w3.org/2000/svg" width="500" height="500">
<path d="M0 0 C43.89 0 87.78 0 133 0 C131.81303183 5.93484087 130.64697916 11.63641427 129.09570312 17.44873047 C128.91640259 18.12388199 128.73710205 18.79903351 128.55236816 19.49464417 C127.96503706 21.70298217 127.37325422 23.91009808 126.78125 26.1171875 C126.35944078 27.69811255 125.9378557 29.27909742 125.51647949 30.86013794 C124.63077109 34.18071971 123.74295784 37.50072895 122.85351562 40.8203125 C121.74556801 44.95570108 120.64182787 49.09219652 119.53958511 53.22910881 C114.78896748 71.05383131 109.95419938 88.85246341 104.99658966 106.62075043 C102.17975153 116.71761582 99.41011123 126.82232475 96.80273438 136.97558594 C91.28093261 158.4481755 85.49277433 179.85051077 79.73638153 201.26102448 C70.59364677 235.23238298 70.59364677 235.23238298 61.625 269.25 C61.4111264 270.07033722 61.19725281 270.89067444 60.97689819 271.73587036 C60.17697275 274.80506265 59.37747398 277.87436551 58.57872009 280.94386292 C54.29363944 297.40505562 49.86492899 313.82733658 45.40625 330.2421875 C45.07897415 331.44708832 44.7516983 332.65198914 44.414505 333.8934021 C41.64696777 344.08163756 41.64696777 344.08163756 40.78408432 347.25710297 C36.26661284 363.88180131 31.78360792 380.51478124 27.38793945 397.17218018 C22.17214452 416.9316977 16.88690237 436.67237616 11.54144287 456.39718628 C10.72428059 459.41339477 9.91033749 462.43044335 9.09918213 465.44827271 C8.14433284 468.99999918 7.18292225 472.54988377 6.21640968 476.09845352 C5.85838387 477.41723193 5.50267759 478.73664242 5.14938927 480.05669785 C4.66359349 481.87014633 4.16858675 483.68111991 3.6730957 485.49194336 C3.25892143 487.02231483 3.25892143 487.02231483 2.83638 488.58360291 C2 491 2 491 0 493 C0 330.31 0 167.62 0 0 Z " fill="#FEFEFE" transform="translate(0,0)"/>
</svg>
